<svg xmlns="http://www.w3.org/2000/svg" width="128" height="128" viewBox="0 0 33.867 33.867" id="pentagon">
  <defs>
    <linearGradient id="a">
      <stop offset="0" stop-color="#f6f600"></stop>
      <stop offset="1" stop-color="#f69134"></stop>
    </linearGradient>
    <linearGradient id="b">
      <stop offset="0" stop-color="#f5f8ff"></stop>
      <stop offset="1" stop-color="#a0c9ff"></stop>
    </linearGradient>
  </defs>
  <path fill="#a8d0ff" d="m 26.842546,31.625702 c -1.032469,0.757648 -8.538166,0.790399 -9.818785,0.79648 -1.280621,0.0061 -8.7862892,0.0446 -9.825907,-0.703208 C 6.1582365,30.971163 3.8077006,23.842941 3.4061844,22.626879 3.0046682,21.410814 0.64865253,14.284405 1.0386032,13.064582 1.4285539,11.844761 7.4815379,7.4065269 8.514009,6.6488787 c 1.0324691,-0.7576488 7.082039,-5.200535 8.36266,-5.2066154 1.280621,-0.00608 7.372108,4.3791607 8.411725,5.1269717 1.039617,0.7478111 7.134473,5.128368 7.53599,6.34443 0.401516,1.216065 -1.886724,8.364526 -2.276674,9.584346 -0.38995,1.219823 -2.672693,8.370041 -3.705164,9.127691 z" paint-order="markers fill stroke"></path>
  <path fill="#fff" d="m 22.935683,26.347498 c -0.625402,0.458933 -5.17186,0.478772 -5.947575,0.482455 -0.775716,0.0037 -5.322156,0.02702 -5.951888,-0.425957 C 10.406488,25.951021 8.9826874,21.633213 8.7394753,20.896602 8.4962631,20.15999 7.0029978,15.363723 7.2392043,14.624834 7.4754108,13.885947 11.208057,11.677113 11.83346,11.218179 c 0.625402,-0.458933 4.289834,-3.1501417 5.06555,-3.1538248 0.775716,-0.00368 4.465538,2.6526078 5.09527,3.1055828 0.629732,0.452974 4.321595,2.759162 4.564807,3.495773 0.243213,0.736611 -1.142852,5.413945 -1.379059,6.152833 -0.236206,0.738888 -1.618942,5.07002 -2.244345,5.528955 z" paint-order="markers fill stroke"></path>
  <path fill="#00a1ff" d="m 63.785156,5.4511719 c -0.543522,0.00258 -1.341383,0.2234389 -2.287109,0.6054687 V 64 C 61.496686,65.382634 62.617366,66.503314 64,66.501953 65.382634,66.503314 66.503314,65.382634 66.501953,64 V 6.2167969 C 65.350023,5.7311451 64.410479,5.448203 63.785156,5.4511719 Z" color="#000" font-family="sans-serif" font-weight="400" overflow="visible" paint-order="markers fill stroke" style="line-height:normal;font-variant-ligatures:normal;font-variant-position:normal;font-variant-caps:normal;font-variant-numeric:normal;font-variant-alternates:normal;font-variant-east-asian:normal;font-feature-settings:normal;font-variation-settings:normal;text-indent:0;text-align:start;text-decoration-line:none;text-decoration-style:solid;text-decoration-color:#000;text-transform:none;text-orientation:mixed;shape-padding:0;shape-margin:0;inline-size:0;isolation:auto;mix-blend-mode:normal" transform="scale(.26458)"></path>
  <path fill="#00a1ff" d="m 64.015625,61.800781 c -0.803293,-0.0048 -1.594935,0.378017 -2.082031,1.091797 L 24.998047,116.87891 c 0.818102,1.46376 1.587168,2.55803 2.207031,3.0039 0.308973,0.22225 0.806658,0.43605 1.394531,0.62305 L 66.064453,65.716797 c 0.781591,-1.140537 0.489697,-2.699162 -0.652344,-3.478516 -0.42769,-0.293105 -0.914508,-0.43464 -1.396484,-0.4375 z" color="#000" font-family="sans-serif" font-weight="400" overflow="visible" paint-order="markers fill stroke" style="line-height:normal;font-variant-ligatures:normal;font-variant-position:normal;font-variant-caps:normal;font-variant-numeric:normal;font-variant-alternates:normal;font-variant-east-asian:normal;font-feature-settings:normal;font-variation-settings:normal;text-indent:0;text-align:start;text-decoration-line:none;text-decoration-style:solid;text-decoration-color:#000;text-transform:none;text-orientation:mixed;shape-padding:0;shape-margin:0;inline-size:0;isolation:auto;mix-blend-mode:normal" transform="scale(.26458)"></path>
  <path fill="#00a1ff" d="m 63.962891,61.800781 c -0.481976,0.0029 -0.966842,0.144395 -1.394532,0.4375 -1.142041,0.779354 -1.435888,2.337979 -0.654297,3.478516 l 37.410157,54.666013 c 0.960071,-0.25256 1.696911,-0.53794 2.126951,-0.85351 0.51254,-0.37612 1.11891,-1.18682 1.76758,-2.29102 L 66.044922,62.892578 c -0.487096,-0.71378 -1.278738,-1.096563 -2.082031,-1.091797 z" color="#000" font-family="sans-serif" font-weight="400" overflow="visible" paint-order="markers fill stroke" style="line-height:normal;font-variant-ligatures:normal;font-variant-position:normal;font-variant-caps:normal;font-variant-numeric:normal;font-variant-alternates:normal;font-variant-east-asian:normal;font-feature-settings:normal;font-variation-settings:normal;text-indent:0;text-align:start;text-decoration-line:none;text-decoration-style:solid;text-decoration-color:#000;text-transform:none;text-orientation:mixed;shape-padding:0;shape-margin:0;inline-size:0;isolation:auto;mix-blend-mode:normal" transform="scale(.26458)"></path>
  <path fill="#00a1ff" d="M 122.55078 46.560547 L 63.5625 60.886719 C 62.218613 61.211705 61.393094 62.566901 61.720703 63.910156 C 62.04569 65.254028 63.398913 66.077572 64.742188 65.75 L 124.19336 51.3125 C 124.26834 50.222357 124.23928 49.347969 124.06055 48.806641 C 123.86999 48.229515 123.33947 47.463969 122.55078 46.560547 z " color="#000" font-family="sans-serif" font-weight="400" overflow="visible" paint-order="markers fill stroke" style="line-height:normal;font-variant-ligatures:normal;font-variant-position:normal;font-variant-caps:normal;font-variant-numeric:normal;font-variant-alternates:normal;font-variant-east-asian:normal;font-feature-settings:normal;font-variation-settings:normal;text-indent:0;text-align:start;text-decoration-line:none;text-decoration-style:solid;text-decoration-color:#000;text-transform:none;text-orientation:mixed;shape-padding:0;shape-margin:0;inline-size:0;isolation:auto;mix-blend-mode:normal" transform="scale(.26458)"></path>
  <path fill="#00a1ff" d="M 5.6113281,46.886719 C 4.7288516,47.890771 4.125115,48.755362 3.9257812,49.378906 3.7688673,49.869756 3.7301797,50.656563 3.7871093,51.599609 L 62.074219,65.75 c 1.343274,0.327572 2.696498,-0.495972 3.021484,-1.839844 0.32761,-1.343255 -0.495957,-2.698451 -1.839844,-3.023437 z" color="#000" font-family="sans-serif" font-weight="400" overflow="visible" paint-order="markers fill stroke" style="line-height:normal;font-variant-ligatures:normal;font-variant-position:normal;font-variant-caps:normal;font-variant-numeric:normal;font-variant-alternates:normal;font-variant-east-asian:normal;font-feature-settings:normal;font-variation-settings:normal;text-indent:0;text-align:start;text-decoration-line:none;text-decoration-style:solid;text-decoration-color:#000;text-transform:none;text-orientation:mixed;shape-padding:0;shape-margin:0;inline-size:0;isolation:auto;mix-blend-mode:normal" transform="scale(.26458)"></path>
  <path fill="#06f" d="M18.38327 7.9512682A1.4499372 1.4499372 0 0 0 16.933333 6.501331 1.4499372 1.4499372 0 0 0 15.483396 7.9512682 1.4499372 1.4499372 0 0 0 16.933333 9.4012054 1.4499372 1.4499372 0 0 0 18.38327 7.9512682zM8.7463951 14.639688a1.4499372-1.4499372 0 0 0-1.449937-1.449937 1.4499372-1.4499372 0 0 0-1.449937 1.449937 1.4499372-1.4499372 0 0 0 1.449937 1.449937 1.4499372-1.4499372 0 0 0 1.449937-1.449937zM12.30108 25.958552a1.4499372-1.4499372 0 0 0-1.449937-1.449937 1.4499372-1.4499372 0 0 0-1.4499372 1.449937 1.4499372-1.4499372 0 0 0 1.4499372 1.449937 1.4499372-1.4499372 0 0 0 1.449937-1.449937zM24.134438 25.958552a1.4499372-1.4499372 0 0 0-1.449937-1.449937 1.4499372-1.4499372 0 0 0-1.449937 1.449937 1.4499372-1.4499372 0 0 0 1.449937 1.449937 1.4499372-1.4499372 0 0 0 1.449937-1.449937zM27.548806 14.639688a1.4499372-1.4499372 0 0 0-1.449937-1.449937 1.4499372-1.4499372 0 0 0-1.449937 1.449937 1.4499372-1.4499372 0 0 0 1.449937 1.449937 1.4499372-1.4499372 0 0 0 1.449937-1.449937z" paint-order="markers fill stroke"></path>
</svg>
